<svg width="20" height="20" viewBox="0 0 20 20" fill="none" xmlns="http://www.w3.org/2000/svg">
    <g clip-path="url(#clip0_444_2937)">
    <path d="M14.5893 11.9223L14.5818 11.9848C12.7493 11.0715 12.5576 10.9498 12.3209 11.3048C12.1568 11.5506 11.6784 12.1081 11.5343 12.2731C11.3884 12.4356 11.2434 12.4481 10.9959 12.3356C10.7459 12.2106 9.94345 11.9481 8.99345 11.0981C8.25345 10.4356 7.75678 9.62315 7.61012 9.37315C7.36595 8.95148 7.87678 8.89148 8.34178 8.01148C8.42512 7.83648 8.38261 7.69898 8.32095 7.57482C8.25845 7.44982 7.76095 6.22482 7.55261 5.73648C7.35261 5.24982 7.14678 5.31148 6.99261 5.31148C6.51261 5.26982 6.16178 5.27648 5.85261 5.59815C4.50761 7.07648 4.84678 8.60148 5.99762 10.2231C8.25928 13.1831 9.46428 13.7281 11.6676 14.4848C12.2626 14.674 12.8051 14.6473 13.2343 14.5856C13.7126 14.5098 14.7068 13.9848 14.9143 13.3973C15.1268 12.8098 15.1268 12.3223 15.0643 12.2098C15.0026 12.0973 14.8393 12.0348 14.5893 11.9223Z" fill="#ffffff"/>
    <path d="M17.1 2.87404C10.6925 -3.32013 0.0883334 1.17237 0.0841675 9.91071C0.0841677 11.6574 0.541668 13.3607 1.41333 14.8649L1.74849e-06 19.9999L5.27917 18.6232C11.8667 22.1815 19.9967 17.4565 20 9.9157C20 7.26904 18.9667 4.7782 17.0875 2.90654L17.1 2.87404ZM18.335 9.8882C18.33 16.249 11.3475 20.2215 5.825 16.9749L5.525 16.7965L2.4 17.609L3.2375 14.5715L3.03833 14.259C-0.398333 8.78821 3.55 1.63821 10.06 1.6382C12.2717 1.6382 14.3475 2.5007 15.9108 4.0632C17.4733 5.61237 18.335 7.6882 18.335 9.8882Z" fill="#ffffff"/>
    </g>
    <defs>
    <clipPath id="clip0_444_2937">
    <rect width="20" height="20" fill="white"/>
    </clipPath>
    </defs>
    </svg>
    